<?xml version="1.0" encoding="utf-8"?>
<!-- Generator: Adobe Illustrator 24.1.0, SVG Export Plug-In . SVG Version: 6.00 Build 0)  -->
<svg version="1.1"
	 id="SVGRoot" xmlns:cc="http://creativecommons.org/ns#" xmlns:dc="http://purl.org/dc/elements/1.1/" xmlns:rdf="http://www.w3.org/1999/02/22-rdf-syntax-ns#" xmlns:svg="http://www.w3.org/2000/svg"
	 xmlns="http://www.w3.org/2000/svg" xmlns:xlink="http://www.w3.org/1999/xlink" x="0px" y="0px" viewBox="0 0 1290.4 1311.8"
	 style="enable-background:new 0 0 1290.4 1311.8;" xml:space="preserve">
<style type="text/css">
	.st0{fill:#2A4C9F;}
</style>
<g id="layer1">
	<path id="path150" class="st0" d="M397.4,533.8c34.4-64.6,86.6-111.5,155.1-139.3c40.4-16.4,80.9-24.7,120.6-24.7
		c28.4,0,56.9,4.3,84.6,12.8c58.1,17.8,107.6,51.6,147.4,100.2L366.6,713.2C357.9,647.8,368,589.1,397.4,533.8L397.4,533.8z
		 M1268.6,861.4C1108.2,1055.3,923,1166.1,733.1,1182c-69.9,5.8-140.6-1.4-207.8-21.4c-99-29.4-192.6-83.6-258.8-163.9
		c-71.5-86.6-112.6-198-112.6-310.4c0-0.1,0-0.2,0-0.3c0-5.4,0.1-10.8,0.3-16.3c1-28.3,4.3-56.5,10-84.2
		c11.7-57.4,32.9-112.7,61.8-163.7c31.5-55.6,71.3-107.8,120.2-149.6c52.7-45.1,114.9-79.1,181.5-98.9
		c72.8-21.6,150.5-26.3,225.3-13.1c64.9,11.5,127.4,36.1,183.1,71.3c108.6,68.7,188.8,177.8,197.5,308.6c4.5,68.2-7.9,138-37,199.9
		c-27.2,57.9-70.7,105.2-121.9,143.1c-101.1,74.6-237.5,117.1-362.7,93.2c-78.1-14.9-145.8-60-189.5-126.4l604.9-258.7l0.4-0.2
		c73.7-37,51.4-109.7,42.8-131.2l-0.2-0.5c-44.7-91.3-119.9-160.3-223.6-205.1c-113.5-47.8-227.3-52.2-338.6-13
		c-122.2,44-210.5,130.4-262.4,256.8c-50.8,123.8-48.8,247.4,5.8,367.3c49.9,112.7,136.6,193.9,257.9,241.4
		c57.1,21.8,114.3,32.8,169.9,32.8c105.8,0,209.8-32.3,302.2-82.4c105.9-57.5,203.8-140.2,256.3-251.3
		c53.8-113.9,67.2-250.6,35.9-372.6C1246.5,327.3,1182,237.2,1101,165C1014.1,87.3,906.5,33.7,792,11.7C751.5,3.9,710.2,0,669,0
		c-168.4,0-322,64.3-437.6,169.7C112.9,270.7,32.4,415,7.6,578.2C-9,687.9,1.3,801.1,39.8,905.3
		c113.2,306.9,444.8,459.6,758.5,389.8c200.3-44.5,361.3-174.1,453.4-364.9c8.3-17.1,26.1-62.3,38.8-99.7L1268.6,861.4"/>
</g>
</svg>
