<svg xmlns="http://www.w3.org/2000/svg" viewBox="0 0 542.1 415"><defs><style>.cls-1{fill:#f8d1d0;}.cls-2{fill:#dd9a9d;}.cls-3{fill:#661838;}.cls-4{fill:#f0838c;}</style></defs><g id="Layer_2" data-name="Layer 2"><g id="Layer_1-2" data-name="Layer 1"><path class="cls-1" d="M59.07,70.22c.12,0,4.29,23.71,17.9,44.32.92,1.33,1.89,2.73,2.93,4s2,2.61,3.13,3.84A63.52,63.52,0,0,0,102.15,138a4.91,4.91,0,0,1,.79.41,60,60,0,0,0,8.28,3.27c.74.2,1.48.37,2.27.65a61.56,61.56,0,0,0,8.11,1.58c1.83.14,3.73.16,5.68.22s4,.19,6.12.07a81.22,81.22,0,0,0,13.51-1.87,10.25,10.25,0,0,1,1.89-.27,10.88,10.88,0,0,1,6.67,1.83,10.61,10.61,0,0,1,4.8,7.15c0,.16,4.21,19.18,20,31.2a45,45,0,0,0,10.8,6.38c20.3,8.09,59.68,7.28,131.32-43.15a11.18,11.18,0,0,1,12.83,18.31c-45.7,32-84.84,49.07-117,50.83-13.09.71-25.06-1.11-35.75-5.43-.08,0-.13-.11-.25-.15-3.92,24.69-1,48.43,9.78,69.4,18.92,37,67.47,63.14,103.45,67,10.64,1.16,19.67,9.9,27.76,26.76l44.58-22.77L366,344.71a11.14,11.14,0,0,1,6.44-13.44l6-2.43a191.58,191.58,0,0,0,27.67-14.11l5.53-3.46a11.21,11.21,0,0,1,14.65,2.6l3.57,4.55,43.24-22.82c-10.8-13.72-14.33-25.07-10.64-34.51l2.14-5.43c9.43-24.62,18.86-49.32,21.93-73.31,2.23-17.75,11.71-40.76,31.52-52a6.88,6.88,0,0,0,1.07-.58,15.71,15.71,0,0,0-.91-1.73c-1.56-2.55-3.35-5-5.25-7.78,0,0-1.58-2.34-1.62-2.38-3.22-4.77-6.93-10.36-11.42-17.61-14.89,4.74-38.56,4.69-58-4.66-4.92-2.44-9.67-5-14.18-7.45-10.48-5.63-19.33-10.33-29.24-13.11l-3.95-1a11.08,11.08,0,0,1-8.12-9.93l-.3-4c-.93-12,.3-25,1.46-33.51,0,0-.08,0-.12.05C363.75,38.8,346.12,58,339.69,65.64l-1.95,2.26a10.79,10.79,0,0,1-6.36,3.67l-2.77.51c-3.13.58-6.31,1.52-9.48,2.26A11,11,0,0,1,312,95.19c-10.27-3.25-21.47-6.57-33.28-9.89-.12,0-.32.1-.45,0-17.27-4.73-40-10.7-64.25-16.18-.69-.09-1.31-.26-1.88-.39-5.26-1.21-10.66-2.25-16-3.38-14.63-3-29.07-5.54-42.75-7.47-1.23-.22-2.49-.39-3.75-.52-6.09-.85-11.92-1.54-17.67-2.16-5-.46-9.93-.92-14.69-1.14-1.91-.1-3.61-.13-5.48-.23-6.25-.23-12.37-.3-18,0a119.44,119.44,0,0,0-15.06,1.71c-.12,0-.16,0-.32.06a50.12,50.12,0,0,0-9.36,2.86c-.87.41-1.62.86-2.4,1.31a18.81,18.81,0,0,0-4.91,3.63c-.19.25-.38.42-.57.68A10.26,10.26,0,0,0,59.07,70.22Z"/><path class="cls-2" d="M28.93,124.54c.2,0,18,40.75,51.7,54.22,16.41,6.6,34.3,5.63,53.3-2.74a11.27,11.27,0,0,1,13.92,4.26,61.1,61.1,0,0,0,5.23,5.92c-1-1.45-1.85-2.74-2.74-4.11-.79-1.17-1.62-2.26-2.33-3.36a97.32,97.32,0,0,1-6.41-12.85c-2.7.34-5.32.61-7.82.75-1,.05-1.72-.23-2.65-.18a86.13,86.13,0,0,1-19.77-1.52h-.16a74.33,74.33,0,0,1-17.85-6.4c-1.09-.55-2.09-1.18-3.18-1.73-2.17-1.22-4.45-2.19-6.56-3.61-1.93-1.36-3.49-3-5.31-4.49-1.27-1.11-2.59-2.17-3.86-3.28a91.57,91.57,0,0,1-9.33-9.9c-1-1.2-2.08-2.36-3-3.61-2.53-3.38-4.66-6.79-6.8-10.28a131.24,131.24,0,0,1-7.79-15C33.86,111.67,27.34,117.65,28.93,124.54Z"/><path class="cls-2" d="M62.19,87.89c.18,0,10.66,37.93,38.56,53.93,13.55,7.83,29.35,9.19,47,4.22a10,10,0,0,1,11.67,5.47,53.33,53.33,0,0,0,3.85,5.83c-.71-1.39-1.28-2.63-1.89-3.94-.55-1.12-1.14-2.18-1.62-3.23-.79-1.93-1.5-3.81-2.12-5.61a10.09,10.09,0,0,0-8.78-6.76h-.07c-.86-.07-1.47-.41-2.29-.48a76.26,76.26,0,0,1-17.14-3.79h-.14a66.08,66.08,0,0,1-14.85-7.82c-.88-.62-1.68-1.3-2.56-1.92-1.76-1.33-3.64-2.47-5.3-4s-2.68-3.1-4.09-4.59c-1-1.13-2-2.22-3-3.35A81.41,81.41,0,0,1,92.52,102c-.73-1.17-1.52-2.32-2.17-3.53-1.8-3.28-3.25-6.53-4.68-9.85a114.75,114.75,0,0,1-5-14.16C68.11,77.22,61.65,81.66,62.19,87.89Z"/><path class="cls-3" d="M154.11,319.72,16.25,390.18a11.37,11.37,0,0,1-4.5,1.22,11.11,11.11,0,0,1-10.53-6,11.24,11.24,0,0,1,4.86-15.07L144,299.88A11.23,11.23,0,0,1,159,304.74,11.11,11.11,0,0,1,154.11,319.72Z"/><path class="cls-3" d="M193.84,350.17,100,398.12a11.42,11.42,0,0,1-4.46,1.17,11.11,11.11,0,0,1-5.71-21l93.89-48a11.16,11.16,0,1,1,10.16,19.87Z"/><path class="cls-3" d="M238.44,370.42a11.22,11.22,0,0,1-4.86,15L178,413.81a11.17,11.17,0,1,1-10.17-19.88l55.55-28.37A11.23,11.23,0,0,1,238.44,370.42Z"/><ellipse class="cls-4" cx="412.62" cy="161.1" rx="22.35" ry="8.68" transform="translate(-28.07 205.8) rotate(-27.12)"/><path class="cls-2" d="M343,362l-10.35-21.8a51.91,51.91,0,0,0-40.27-29.06c-30.06-4-61.71-18.61-92.86-97.43L176.27,201,171,254.49l24.59,41.62,18.18,31.57,45.44,21.08,14.74,2.9a42.05,42.05,0,0,1,30.13,23.78h0l21.41,7.43Z"/><path class="cls-3" d="M7.71,131.41c.88,2.06,21.45,50.77,64.45,68,19.8,7.92,40.75,8,62.69.15,4.64,5,13,11.57,23.65,17.63-2,25.15,2.41,49.42,13.66,71.34,23.09,45.33,79.54,74.46,120.67,78.86,1.07.39,5.44,4,10.9,15.74A21.33,21.33,0,0,0,324,394.57a22.51,22.51,0,0,0,8.82-2.35l45.06-23a21.77,21.77,0,0,0,11.78-21,199.58,199.58,0,0,0,25.38-13,21.81,21.81,0,0,0,15.23,5h0a21.77,21.77,0,0,0,8.7-2.34l45-23A21.53,21.53,0,0,0,494.19,287a10.78,10.78,0,0,0-1.65-2.67c-9.09-10.72-9.34-15.25-9.42-15.24l2.41-6.29c9.62-25,19.59-51,23-77.75,1.5-11.8,7.74-28.14,20.32-35.23,4.6-2.52,10.11-6.34,12.26-12.82,2.2-5.88.89-12.77-3.83-20.54-1.82-2.94-3.76-5.79-7.37-11-4.15-6.18-9.17-13.6-15.56-24.52a11.25,11.25,0,0,0-14.42-4.4c-7.11,3.27-30.33,7.82-48.18-.85-4.5-2.31-9-4.7-13.73-7.28-9.89-5.25-19.2-10.25-29.92-13.64-.38-13,1.88-28.06,2.66-32.27,3.39-10.6.33-16.23-2.82-19C405.08.89,401.21-.23,396.24,0a33.38,33.38,0,0,0-6,1.1,125.23,125.23,0,0,0-13,5.73c-26.49,13.48-46.06,34.36-53.83,43.45a206,206,0,0,0-42.84,12.39C250.34,54.31,207.24,43.5,165.44,37c-2.17-.36-4.37-.65-6.62-1-4.28-.62-8.61-1.19-12.85-1.69-4.9-.62-9.63-1.18-14.35-1.57-1.06-.1-2-.17-3-.24-12.94-1.08-25.33-1.66-36.12-1.07-12.6.69-22.17,2.75-29.88,5.6-1.23.48-2.29,1-3.48,1.53a52,52,0,0,0-6.34,3.3c-.71.45-1.67.74-2.33,1.22-.42.35-.6.85-1.07,1.2a32.53,32.53,0,0,0-8.38,9.81c-.32.71-.77,1.42-1,2.13a38.07,38.07,0,0,0-3.25,15.49c.11.56.73,4.58,2.32,10.53.26,1.16.35,2.13.71,3.37C7.66,97.78,4,116.09,7.71,131.41ZM148.8,142a10.25,10.25,0,0,0-1.89.27,81.22,81.22,0,0,1-13.51,1.87c-2.14.12-4.13,0-6.12-.07s-3.85-.08-5.68-.22a61.56,61.56,0,0,1-8.11-1.58c-.79-.28-1.53-.45-2.27-.65a60,60,0,0,1-8.28-3.27,4.91,4.91,0,0,0-.79-.41A63.52,63.52,0,0,1,83,122.39c-1.08-1.23-2.17-2.51-3.13-3.84s-2-2.68-2.93-4C63.36,93.93,59.19,70.21,59.07,70.22a10.26,10.26,0,0,1,2.14-6.11c.19-.26.38-.43.57-.68a18.81,18.81,0,0,1,4.91-3.63c.78-.45,1.53-.9,2.4-1.31a50.12,50.12,0,0,1,9.36-2.86c.16,0,.2-.05.32-.06a119.44,119.44,0,0,1,15.06-1.71c5.62-.31,11.74-.24,18,0,1.87.1,3.57.13,5.48.23,4.76.22,9.69.68,14.69,1.14,5.75.62,11.58,1.31,17.67,2.16,1.26.13,2.52.3,3.75.52,13.68,1.93,28.12,4.5,42.75,7.47,5.33,1.13,10.73,2.17,16,3.38.57.13,1.19.3,1.88.39,24.29,5.48,47,11.45,64.25,16.18.13.08.33,0,.45,0,11.81,3.32,23,6.64,33.28,9.89a11,11,0,0,0,7.12-20.85c3.17-.74,6.35-1.68,9.48-2.26l2.77-.51a10.79,10.79,0,0,0,6.36-3.67l1.95-2.26C346.12,58,363.75,38.8,387.4,26.7c0,0,.08-.05.12-.05-1.16,8.49-2.39,21.52-1.46,33.51l.3,4A11.08,11.08,0,0,0,394.48,74l3.95,1c9.91,2.78,18.76,7.48,29.24,13.11,4.51,2.47,9.26,5,14.18,7.45,19.47,9.35,43.14,9.4,58,4.66,4.49,7.25,8.2,12.84,11.42,17.61,0,0,1.62,2.34,1.62,2.38,1.9,2.73,3.69,5.23,5.25,7.78a15.71,15.71,0,0,1,.91,1.73,6.88,6.88,0,0,1-1.07.58c-19.81,11.21-29.29,34.22-31.52,52-3.07,24-12.5,48.69-21.93,73.31l-2.14,5.43c-3.69,9.44-.16,20.79,10.64,34.51l-43.24,22.82-3.57-4.55a11.21,11.21,0,0,0-14.65-2.6l-5.53,3.46a191.58,191.58,0,0,1-27.67,14.11l-6,2.43A11.14,11.14,0,0,0,366,344.71l1.87,4.64-44.58,22.77c-8.09-16.86-17.12-25.6-27.76-26.76-36-3.83-84.53-29.95-103.45-67-10.74-21-13.7-44.71-9.78-69.4.12,0,.17.12.25.15,10.69,4.32,22.66,6.14,35.75,5.43,32.12-1.76,71.26-18.8,117-50.83a11.18,11.18,0,0,0-12.83-18.31c-71.64,50.43-111,51.24-131.32,43.15a45,45,0,0,1-10.8-6.38c-15.81-12-20-31-20-31.2a10.61,10.61,0,0,0-4.8-7.15A10.88,10.88,0,0,0,148.8,142ZM47.52,106.59a131.24,131.24,0,0,0,7.79,15c2.14,3.49,4.27,6.9,6.8,10.28.92,1.25,2,2.41,3,3.61a91.57,91.57,0,0,0,9.33,9.9c1.27,1.11,2.59,2.17,3.86,3.28,1.82,1.44,3.38,3.13,5.31,4.49,2.11,1.42,4.39,2.39,6.56,3.61,1.09.55,2.09,1.18,3.18,1.73a74.33,74.33,0,0,0,17.85,6.4h.16a86.13,86.13,0,0,0,19.77,1.52c.93,0,1.68.23,2.65.18,2.5-.14,5.12-.41,7.82-.75A97.32,97.32,0,0,0,148,178.73c.71,1.1,1.54,2.19,2.33,3.36.89,1.37,1.73,2.66,2.74,4.11a61.1,61.1,0,0,1-5.23-5.92A11.27,11.27,0,0,0,133.93,176c-19,8.37-36.89,9.34-53.3,2.74-33.75-13.47-51.5-54.23-51.7-54.22C27.34,117.65,33.86,111.67,47.52,106.59Z"/><ellipse class="cls-3" cx="394.57" cy="122.37" rx="19.81" ry="16.09" transform="translate(-14.76 178.16) rotate(-24.99)"/><path class="cls-3" d="M154.36,163.86a118.56,118.56,0,0,1,6-17.14A128.9,128.9,0,0,1,169,130.2a97.92,97.92,0,0,1,11.43-14.88,73.71,73.71,0,0,1,14.9-11.91,75.54,75.54,0,0,0-17.51,8.82,104.87,104.87,0,0,0-15.18,13,139.81,139.81,0,0,0-12.8,15.54,132.07,132.07,0,0,0-10.67,17.62Z"/></g></g></svg>